<svg xmlns="http://www.w3.org/2000/svg" viewBox="265.504 142.199 310.882 310.882">
  <g>
    <path d="M426.211 155.584c-16.425-13.286-30.518-16.747-49.759-10.087-18.659 6.459-40.045 20.439-63.628 44.022-23.584 23.584-37.563 44.969-44.022 63.628-6.66 19.241-3.199 33.334 10.087 49.76 22.263 27.522 45.613 50.231 69.782 69.781 16.425 13.286 30.518 16.747 49.759 10.087 18.659-6.458 40.044-20.439 63.628-44.022 23.584-23.584 37.563-44.969 44.022-63.628 6.66-19.241 3.199-33.334-10.087-49.759-19.551-24.169-42.259-47.519-69.782-69.782Z" fill="#4d4d4d"/>
    <path d="M350.036 226.731c-18.786 19.154-34.774 30.709-51.477 37.719-2.675 1.122-4.709 4.6-3.27 8.517 2.017 5.488 5.524 5.674 8.218 4.948 15.801-4.259 38.176-20.476 57.707-40.006 22.417-22.417 37.296-43.933 44.225-63.954 1.391-4.017 2.336-7.802 2.856-11.436 3.35 1.844 6.815 4.296 10.568 7.376 24.039 19.721 43.215 38.583 62.819 62.818 11.895 14.706 14.554 24.893 8.166 40.92-6.634 16.64-19.708 34.783-38.917 53.992-19.209 19.21-37.353 32.283-53.993 38.917-16.027 6.39-26.296 3.832-40.92-8.165-24.098-19.771-43.096-38.78-62.818-62.819-11.997-14.624-14.555-24.893-8.166-40.92 6.634-16.64 19.708-34.783 38.917-53.992 19.21-19.209 37.353-32.283 53.992-38.917 7.614-3.035 13.671 1.174 10.891 9.198-5.037 14.538-18.026 34.625-38.798 55.804Z" fill="#fff"/>
    <path d="M414.078 404.376c-3.208 3.209-2.518 5.333-.35 7.501l39.361 39.36c2.168 2.168 4.292 2.86 7.501-.349 3.209-3.209 2.517-5.333.349-7.502l-39.359-39.36c-2.168-2.168-4.293-2.859-7.502.35Z" fill="#4d4d4d" fill-rule="evenodd"/>
    <path d="M527.681 290.773c-3.209 3.209-2.518 5.333-.35 7.501l39.36 39.36c2.168 2.169 4.293 2.859 7.501-.35 3.209-3.209 2.518-5.333.35-7.501l-39.36-39.36c-2.168-2.168-4.292-2.858-7.501.35Z" fill="#4d4d4d" fill-rule="evenodd"/>
    <path d="M475.013 351.708c-3.208 3.208-2.518 5.333-.35 7.501l39.361 39.359c2.168 2.168 4.292 2.86 7.501-.349 3.209-3.209 2.517-5.333.349-7.501l-39.359-39.361c-2.169-2.168-4.293-2.858-7.502.351Z" fill="#4d4d4d" fill-rule="evenodd"/>
    <path d="M344.685 284.562c-4.759 4.758-4.759 12.474 0 17.231 4.759 4.759 12.474 4.759 17.232 0 4.758-4.757 4.758-12.473 0-17.231s-12.473-4.759-17.232 0Z" fill="#4d4d4d" fill-rule="evenodd"/>
    <path d="M360.628 328.056c-5.396 5.396-5.396 14.144 0 19.539 5.396 5.397 14.144 5.397 19.539 0 5.396-5.395 5.396-14.143 0-19.539-5.395-5.396-14.143-5.396-19.539 0Z" fill="#f8b193" fill-rule="evenodd"/>
    <path d="M451.361 256.862c5.396 5.396 14.144 5.396 19.539 0 5.396-5.396 5.396-14.144 0-19.539-5.395-5.396-14.143-5.396-19.539 0-5.396 5.395-5.396 14.143 0 19.539Z" fill="#f8b193" fill-rule="evenodd"/>
    <path d="M425.098 238.612c4.759-4.758 4.759-12.474 0-17.232-4.759-4.759-12.474-4.759-17.232 0-4.758 4.758-4.758 12.474.001 17.232 4.757 4.758 12.472 4.758 17.231 0Z" fill="#4d4d4d" fill-rule="evenodd"/>
    <path d="M433.523 309.846c10.186-10.187 12.199-25.9.17-36.732-1.997-1.799-4.524-1.616-6.429.546-3.788 4.302-6.298 8.613-13.805 16.121-7.508 7.508-11.82 10.018-16.122 13.806-2.162 1.904-2.344 4.432-.546 6.428 10.833 12.029 26.546 10.017 36.732-.169Z" fill="#4d4d4d" fill-rule="evenodd"/>
    <path d="M428.914 305.235c-3.522 3.522-9.243 6.42-12.84 5.824-.477-.079-.818-.447-.839-.93-.178-4.123 2.112-9.314 5.685-12.887 3.574-3.574 8.765-5.864 12.887-5.686.484.021.852.362.931.84.595 3.597-2.302 9.317-5.824 12.839Z" fill="#e56e62" fill-rule="evenodd"/>
  </g>
</svg>
